<svg version="1.1" viewBox="0.0 0.0 960.0 720.0" fill="none" stroke="none" stroke-linecap="square" stroke-miterlimit="10" xmlns:xlink="http://www.w3.org/1999/xlink" xmlns="http://www.w3.org/2000/svg"><clipPath id="p.0"><path d="m0 0l960.0 0l0 720.0l-960.0 0l0 -720.0z" clip-rule="nonzero"/></clipPath><g clip-path="url(#p.0)"><path fill="#000000" fill-opacity="0.0" d="m0 0l960.0 0l0 720.0l-960.0 0z" fill-rule="evenodd"/><path fill="#ffffff" d="m-0.0131233595 0l960.0 0l0 716.69293l-960.0 0z" fill-rule="evenodd"/><path fill="#cccccc" d="m377.4901 98.046555l0 0c0 -37.6054 30.485199 -68.0906 68.09061 -68.0906l411.37784 0c18.058777 0 35.37787 7.173809 48.14734 19.943275c12.76947 12.769463 19.943298 30.088577 19.943298 48.147324l0 272.35425c0 37.605408 -30.48523 68.09061 -68.09064 68.09061l-411.37784 0l0 0c-37.605408 0 -68.09061 -30.485199 -68.09061 -68.09061z" fill-rule="evenodd"/><path fill="#434343" d="m690.776 114.91276q0 1.203125 -0.25 2.3125q-0.25 1.09375 -0.8125 1.953125q-0.546875 0.84375 -1.421875 1.34375q-0.859375 0.5 -2.09375 0.5q-1.234375 0 -2.109375 -0.5q-0.859375 -0.515625 -1.421875 -1.359375q-0.546875 -0.859375 -0.796875 -1.96875q-0.234375 -1.109375 -0.234375 -2.3125q0 -1.1875 0.234375 -2.296875q0.25 -1.109375 0.796875 -1.96875q0.5625 -0.859375 1.421875 -1.375q0.875 -0.515625 2.109375 -0.515625q1.109375 0 1.890625 0.390625q0.78125 0.390625 1.15625 1.203125l0 -1.390625l1.0625 0l0 3.90625l-1.0625 0q0 -0.65625 -0.25 -1.203125q-0.234375 -0.5625 -0.640625 -0.96875q-0.40625 -0.40625 -0.96875 -0.625q-0.5625 -0.234375 -1.1875 -0.234375q-0.953125 0 -1.59375 0.453125q-0.625 0.453125 -1.015625 1.1875q-0.375 0.734375 -0.546875 1.640625q-0.15625 0.90625 -0.15625 1.796875q0 0.90625 0.15625 1.8125q0.171875 0.90625 0.546875 1.625q0.390625 0.71875 1.015625 1.1875q0.640625 0.453125 1.59375 0.453125q1.453125 0 2.28125 -1.109375q0.828125 -1.109375 0.984375 -3.125l-2.640625 0l0 -1.0625l3.953125 0l0 0.25zm9.934448 1.6875q0 1.0 -0.3125 1.8125q-0.3125 0.796875 -0.90625 1.375q-0.578125 0.578125 -1.40625 0.90625q-0.8125 0.328125 -1.828125 0.328125q-0.984375 0 -1.8125 -0.328125q-0.8125 -0.328125 -1.40625 -0.90625q-0.578125 -0.578125 -0.90625 -1.375q-0.3125 -0.8125 -0.3125 -1.8125q0 -0.96875 0.3125 -1.796875q0.328125 -0.828125 0.90625 -1.421875q0.59375 -0.59375 1.40625 -0.921875q0.828125 -0.328125 1.8125 -0.328125q1.015625 0 1.828125 0.328125q0.828125 0.328125 1.40625 0.921875q0.59375 0.59375 0.90625 1.421875q0.3125 0.828125 0.3125 1.796875zm-1.25 0q0 -0.734375 -0.21875 -1.34375q-0.203125 -0.609375 -0.625 -1.078125q-0.421875 -0.46875 -1.015625 -0.734375q-0.59375 -0.265625 -1.34375 -0.265625q-0.75 0 -1.34375 0.265625q-0.59375 0.265625 -1.0 0.734375q-0.40625 0.46875 -0.625 1.078125q-0.21875 0.609375 -0.21875 1.34375q0 0.734375 0.21875 1.34375q0.21875 0.609375 0.625 1.0625q0.40625 0.453125 1.0 0.703125q0.59375 0.25 1.34375 0.25q0.75 0 1.34375 -0.25q0.59375 -0.25 1.015625 -0.703125q0.421875 -0.453125 0.625 -1.0625q0.21875 -0.609375 0.21875 -1.34375zm11.434387 0q0 1.0 -0.3125 1.8125q-0.3125 0.796875 -0.90625 1.375q-0.578125 0.578125 -1.40625 0.90625q-0.8125 0.328125 -1.828125 0.328125q-0.984375 0 -1.8125 -0.328125q-0.8125 -0.328125 -1.40625 -0.90625q-0.578125 -0.578125 -0.90625 -1.375q-0.3125 -0.8125 -0.3125 -1.8125q0 -0.96875 0.3125 -1.796875q0.328125 -0.828125 0.90625 -1.421875q0.59375 -0.59375 1.40625 -0.921875q0.828125 -0.328125 1.8125 -0.328125q1.015625 0 1.828125 0.328125q0.828125 0.328125 1.40625 0.921875q0.59375 0.59375 0.90625 1.421875q0.3125 0.828125 0.3125 1.796875zm-1.25 0q0 -0.734375 -0.21875 -1.34375q-0.203125 -0.609375 -0.625 -1.078125q-0.421875 -0.46875 -1.015625 -0.734375q-0.59375 -0.265625 -1.34375 -0.265625q-0.75 0 -1.34375 0.265625q-0.59375 0.265625 -1.0 0.734375q-0.40625 0.46875 -0.625 1.078125q-0.21875 0.609375 -0.21875 1.34375q0 0.734375 0.21875 1.34375q0.21875 0.609375 0.625 1.0625q0.40625 0.453125 1.0 0.703125q0.59375 0.25 1.34375 0.25q0.75 0 1.34375 -0.25q0.59375 -0.25 1.015625 -0.703125q0.421875 -0.453125 0.625 -1.0625q0.21875 -0.609375 0.21875 -1.34375zm10.778198 4.125q0 0.875 -0.3125 1.5625q-0.296875 0.6875 -0.84375 1.15625q-0.53125 0.46875 -1.265625 0.71875q-0.734375 0.25 -1.640625 0.25q-1.265625 0 -2.15625 -0.46875q-0.875 -0.46875 -1.53125 -1.359375l0.875 -0.6875q0.390625 0.59375 1.125 1.0q0.75 0.40625 1.6875 0.40625q1.296875 0 2.046875 -0.65625q0.75 -0.65625 0.75 -1.875l0 -0.921875q-1.109375 0.984375 -2.53125 0.984375q-1.984375 0 -3.125 -1.140625q-1.140625 -1.140625 -1.140625 -3.109375q0 -0.96875 0.296875 -1.78125q0.296875 -0.8125 0.84375 -1.40625q0.546875 -0.609375 1.34375 -0.9375q0.796875 -0.328125 1.78125 -0.328125q0.703125 0 1.34375 0.25q0.65625 0.234375 1.1875 0.71875l0 -0.765625l1.265625 0l0 8.390625zm-1.265625 -6.421875q-0.53125 -0.59375 -1.171875 -0.859375q-0.640625 -0.265625 -1.359375 -0.265625q-0.75 0 -1.3125 0.265625q-0.5625 0.265625 -0.9375 0.734375q-0.375 0.453125 -0.578125 1.078125q-0.1875 0.609375 -0.1875 1.328125q0 1.453125 0.75 2.328125q0.75 0.859375 2.265625 0.859375q0.71875 0 1.359375 -0.265625q0.640625 -0.265625 1.171875 -0.875l0 -4.328125zm10.184387 6.515625l-5.09375 0l0 -1.0625l1.921875 0l0 -9.765625l-1.921875 0l0 -1.0625l3.1875 0l0 10.828125l1.90625 0l0 1.0625zm4.6531982 -3.8125q0.140625 1.359375 0.984375 2.15625q0.84375 0.796875 2.203125 0.796875q0.953125 0 1.703125 -0.390625q0.75 -0.390625 1.125 -0.96875l0.875 0.59375q-0.640625 0.890625 -1.53125 1.359375q-0.875 0.46875 -2.171875 0.46875q-0.984375 0 -1.8125 -0.328125q-0.8125 -0.328125 -1.40625 -0.90625q-0.59375 -0.59375 -0.921875 -1.40625q-0.328125 -0.8125 -0.328125 -1.796875q0 -0.96875 0.296875 -1.78125q0.296875 -0.8125 0.84375 -1.40625q0.5625 -0.609375 1.359375 -0.9375q0.8125 -0.328125 1.796875 -0.328125q1.09375 0 1.90625 0.359375q0.8125 0.359375 1.34375 1.015625q0.546875 0.640625 0.796875 1.53125q0.265625 0.890625 0.265625 1.96875l-7.328125 0zm6.015625 -1.0625q-0.21875 -1.390625 -1.015625 -2.078125q-0.796875 -0.6875 -1.984375 -0.6875q-0.59375 0 -1.109375 0.203125q-0.5 0.203125 -0.890625 0.5625q-0.390625 0.359375 -0.65625 0.875q-0.265625 0.515625 -0.34375 1.125l6.0 0zm21.66571 1.765625q-0.46875 1.53125 -1.53125 2.421875q-1.046875 0.890625 -2.65625 0.890625q-1.234375 0 -2.109375 -0.5q-0.859375 -0.515625 -1.421875 -1.359375q-0.546875 -0.859375 -0.796875 -1.96875q-0.234375 -1.109375 -0.234375 -2.3125q0 -1.1875 0.234375 -2.296875q0.25 -1.109375 0.796875 -1.96875q0.5625 -0.859375 1.421875 -1.375q0.875 -0.515625 2.109375 -0.515625q1.109375 0 1.890625 0.390625q0.78125 0.390625 1.15625 1.203125l0 -1.390625l1.0625 0l0 3.90625l-1.0625 0q0 -0.640625 -0.25 -1.1875q-0.234375 -0.5625 -0.640625 -0.96875q-0.40625 -0.421875 -0.96875 -0.640625q-0.5625 -0.234375 -1.1875 -0.234375q-0.953125 0 -1.59375 0.453125q-0.625 0.453125 -1.015625 1.1875q-0.375 0.734375 -0.546875 1.640625q-0.15625 0.90625 -0.15625 1.796875q0 0.90625 0.15625 1.8125q0.171875 0.90625 0.546875 1.625q0.390625 0.71875 1.015625 1.1875q0.640625 0.453125 1.59375 0.453125q2.234375 0 3.109375 -2.6875l1.078125 0.4375zm8.403137 3.109375l-5.09375 0l0 -1.0625l1.921875 0l0 -9.765625l-1.921875 0l0 -1.0625l3.1875 0l0 10.828125l1.90625 0l0 1.0625zm12.106323 -4.21875q0 1.0 -0.3125 1.8125q-0.3125 0.796875 -0.90625 1.375q-0.578125 0.578125 -1.40625 0.90625q-0.8125 0.328125 -1.828125 0.328125q-0.984375 0 -1.8125 -0.328125q-0.8125 -0.328125 -1.40625 -0.90625q-0.578125 -0.578125 -0.90625 -1.375q-0.3125 -0.8125 -0.3125 -1.8125q0 -0.96875 0.3125 -1.796875q0.328125 -0.828125 0.90625 -1.421875q0.59375 -0.59375 1.40625 -0.921875q0.828125 -0.328125 1.8125 -0.328125q1.015625 0 1.828125 0.328125q0.828125 0.328125 1.40625 0.921875q0.59375 0.59375 0.90625 1.421875q0.3125 0.828125 0.3125 1.796875zm-1.25 0q0 -0.734375 -0.21875 -1.34375q-0.203125 -0.609375 -0.625 -1.078125q-0.421875 -0.46875 -1.015625 -0.734375q-0.59375 -0.265625 -1.34375 -0.265625q-0.75 0 -1.34375 0.265625q-0.59375 0.265625 -1.0 0.734375q-0.40625 0.46875 -0.625 1.078125q-0.21875 0.609375 -0.21875 1.34375q0 0.734375 0.21875 1.34375q0.21875 0.609375 0.625 1.0625q0.40625 0.453125 1.0 0.703125q0.59375 0.25 1.34375 0.25q0.75 0 1.34375 -0.25q0.59375 -0.25 1.015625 -0.703125q0.421875 -0.453125 0.625 -1.0625q0.21875 -0.609375 0.21875 -1.34375zm3.1843872 -4.265625l1.234375 0l0 5.234375q0 1.140625 0.5 1.765625q0.5 0.625 1.609375 0.625q0.6875 0 1.234375 -0.3125q0.5625 -0.328125 0.953125 -0.859375q0.390625 -0.53125 0.59375 -1.21875q0.203125 -0.6875 0.203125 -1.4375l0 -3.796875l1.265625 0l0 8.484375l-1.265625 0l0 -2.125q-0.890625 2.328125 -3.203125 2.328125q-3.125 0 -3.125 -3.453125l0 -5.234375zm17.778198 8.484375l-1.265625 0l0 -0.78125q-0.53125 0.484375 -1.171875 0.734375q-0.640625 0.25 -1.3125 0.25q-1.015625 0 -1.828125 -0.328125q-0.796875 -0.328125 -1.34375 -0.90625q-0.546875 -0.59375 -0.84375 -1.40625q-0.296875 -0.828125 -0.296875 -1.796875q0 -0.96875 0.296875 -1.78125q0.296875 -0.828125 0.84375 -1.421875q0.546875 -0.59375 1.34375 -0.921875q0.8125 -0.328125 1.828125 -0.328125q0.671875 0 1.3125 0.25q0.640625 0.234375 1.171875 0.71875l0 -3.109375l-1.6875 0l0 -1.0625l2.953125 0l0 11.890625zm-1.265625 -6.515625q-0.53125 -0.59375 -1.171875 -0.859375q-0.625 -0.265625 -1.34375 -0.265625q-0.734375 0 -1.3125 0.265625q-0.5625 0.265625 -0.953125 0.734375q-0.375 0.453125 -0.578125 1.0625q-0.1875 0.609375 -0.1875 1.34375q0 0.734375 0.1875 1.34375q0.203125 0.609375 0.578125 1.078125q0.390625 0.453125 0.953125 0.71875q0.578125 0.25 1.3125 0.25q1.453125 0 2.515625 -1.140625l0 -4.53125z" fill-rule="nonzero"/><path fill="#434343" d="m710.66046 134.33464q0 1.71875 -1.078125 2.5625q-1.0625 0.828125 -3.015625 0.828125l-2.6875 0l0 5.09375l-1.234375 0l0 -11.890625l3.90625 0q1.96875 0 3.03125 0.859375q1.078125 0.84375 1.078125 2.546875zm-1.25 0q0 -1.234375 -0.78125 -1.78125q-0.765625 -0.5625 -2.0625 -0.5625l-2.6875 0l0 4.671875l2.6875 0q1.296875 0 2.0625 -0.546875q0.78125 -0.5625 0.78125 -1.78125zm9.746948 8.484375l-5.09375 0l0 -1.0625l1.921875 0l0 -9.765625l-1.921875 0l0 -1.0625l3.1875 0l0 10.828125l1.90625 0l0 1.0625zm3.3875122 -2.296875q0 -0.796875 0.390625 -1.34375q0.40625 -0.546875 1.0625 -0.859375q0.65625 -0.3125 1.484375 -0.453125q0.84375 -0.140625 1.71875 -0.140625q0.34375 0 0.609375 0.015625q0.265625 0 0.5 0.03125q0.25 0.015625 0.5 0.046875q0.25 0.015625 0.53125 0.046875l0 -0.609375q0 -0.609375 -0.265625 -1.015625q-0.265625 -0.40625 -0.65625 -0.625q-0.390625 -0.234375 -0.828125 -0.328125q-0.421875 -0.109375 -0.71875 -0.109375q-0.953125 0 -1.75 0.265625q-0.796875 0.25 -1.5 0.671875l-0.5625 -0.9375q0.765625 -0.453125 1.71875 -0.75q0.953125 -0.296875 2.09375 -0.296875q0.6875 0 1.359375 0.1875q0.671875 0.171875 1.203125 0.546875q0.53125 0.359375 0.84375 0.96875q0.328125 0.59375 0.328125 1.421875l0 5.5625l-1.265625 0l0 -1.421875q-0.328125 0.40625 -0.75 0.71875q-0.40625 0.3125 -0.859375 0.515625q-0.453125 0.1875 -0.90625 0.28125q-0.453125 0.109375 -0.875 0.109375q-1.671875 0 -2.546875 -0.640625q-0.859375 -0.640625 -0.859375 -1.859375zm3.40625 1.4375q0.796875 0 1.40625 -0.234375q0.625 -0.234375 1.0625 -0.578125q0.4375 -0.34375 0.671875 -0.734375q0.25 -0.390625 0.25 -0.703125l0 -0.8125q-0.609375 -0.09375 -1.171875 -0.09375q-0.546875 -0.015625 -0.96875 -0.015625q-0.671875 0 -1.296875 0.09375q-0.625 0.09375 -1.09375 0.296875q-0.453125 0.203125 -0.734375 0.53125q-0.28125 0.328125 -0.28125 0.8125q0 0.53125 0.515625 0.984375q0.53125 0.453125 1.640625 0.453125zm15.371948 -1.84375q-0.140625 1.34375 -1.046875 2.125q-0.90625 0.78125 -2.265625 0.78125q-0.75 0 -1.375 -0.234375q-0.609375 -0.25 -1.046875 -0.6875q-0.4375 -0.4375 -0.6875 -1.046875q-0.234375 -0.625 -0.234375 -1.34375l0 -4.3125l-1.921875 0l0 -1.0625l1.921875 0l0 -3.40625l1.25 0l0 3.40625l3.609375 0l0 1.0625l-3.609375 0l0 4.3125q0 0.453125 0.140625 0.875q0.15625 0.40625 0.421875 0.71875q0.28125 0.296875 0.65625 0.484375q0.375 0.171875 0.875 0.171875q0.921875 0 1.546875 -0.578125q0.625 -0.578125 0.71875 -1.5l1.046875 0.234375zm10.090637 -4.71875l-3.609375 0l0 6.359375l1.90625 0l0 1.0625l-5.09375 0l0 -1.0625l1.921875 0l0 -6.359375l-1.921875 0l0 -1.0625l1.921875 0q0 -1.75 0.90625 -2.671875q0.90625 -0.9375 2.75 -0.9375q0.421875 0 0.71875 0.03125q0.296875 0.03125 0.5 0.0625l0 1.0625q-0.265625 -0.03125 -0.546875 -0.046875q-0.28125 -0.03125 -0.671875 -0.03125q-1.203125 0 -1.796875 0.609375q-0.59375 0.59375 -0.59375 1.921875l3.609375 0l0 1.0625zm10.403198 3.203125q0 1.0 -0.3125 1.8125q-0.3125 0.796875 -0.90625 1.375q-0.578125 0.578125 -1.40625 0.90625q-0.8125 0.328125 -1.828125 0.328125q-0.984375 0 -1.8125 -0.328125q-0.8125 -0.328125 -1.40625 -0.90625q-0.578125 -0.578125 -0.90625 -1.375q-0.3125 -0.8125 -0.3125 -1.8125q0 -0.96875 0.3125 -1.796875q0.328125 -0.828125 0.90625 -1.421875q0.59375 -0.59375 1.40625 -0.921875q0.828125 -0.328125 1.8125 -0.328125q1.015625 0 1.828125 0.328125q0.828125 0.328125 1.40625 0.921875q0.59375 0.59375 0.90625 1.421875q0.3125 0.828125 0.3125 1.796875zm-1.25 0q0 -0.734375 -0.21875 -1.34375q-0.203125 -0.609375 -0.625 -1.078125q-0.421875 -0.46875 -1.015625 -0.734375q-0.59375 -0.265625 -1.34375 -0.265625q-0.75 0 -1.34375 0.265625q-0.59375 0.265625 -1.0 0.734375q-0.40625 0.46875 -0.625 1.078125q-0.21875 0.609375 -0.21875 1.34375q0 0.734375 0.21875 1.34375q0.21875 0.609375 0.625 1.0625q0.40625 0.453125 1.0 0.703125q0.59375 0.25 1.34375 0.25q0.75 0 1.34375 -0.25q0.59375 -0.25 1.015625 -0.703125q0.421875 -0.453125 0.625 -1.0625q0.21875 -0.609375 0.21875 -1.34375zm10.762512 -3.078125q-0.6875 -0.34375 -1.609375 -0.34375q-0.765625 0 -1.375 0.328125q-0.59375 0.328125 -1.015625 0.875q-0.421875 0.53125 -0.640625 1.21875q-0.21875 0.6875 -0.21875 1.40625l0 2.75l1.921875 0l0 1.0625l-5.09375 0l0 -1.0625l1.921875 0l0 -6.359375l-1.921875 0l0 -1.0625l3.171875 0l0 2.125q0.859375 -2.328125 3.25 -2.328125q0.640625 0 1.125 0.078125q0.484375 0.078125 0.890625 0.296875l-0.40625 1.015625zm10.637573 7.296875l-1.25 0l0 -6.109375q0 -0.71875 -0.25 -1.125q-0.25 -0.40625 -0.734375 -0.40625q-0.71875 0 -1.046875 0.75q-0.328125 0.75 -0.328125 2.09375l0 4.796875l-1.265625 0l0 -6.109375q0 -0.71875 -0.265625 -1.125q-0.25 -0.40625 -0.734375 -0.40625q-0.4375 0 -0.703125 0.265625q-0.265625 0.265625 -0.421875 0.6875q-0.140625 0.40625 -0.1875 0.90625q-0.046875 0.5 -0.046875 0.984375l0 4.796875l-1.25 0l0 -8.484375l1.25 0l0 1.21875q0.390625 -1.421875 1.703125 -1.421875q1.25 0 1.6875 1.25q0.625 -1.25 1.75 -1.25q1.09375 0 1.59375 0.640625q0.5 0.640625 0.5 1.9375l0 6.109375z" fill-rule="nonzero"/><path fill="#d17923" d="m377.4901 73.0001l0 0c0 -16.04412 13.006317 -29.05045 29.050446 -29.05045l156.60776 0c7.704651 0 15.09375 3.0606613 20.54181 8.508678c5.447998 5.448017 8.508667 12.837112 8.508667 20.54177l0 116.19831c0 16.044128 -13.006348 29.050446 -29.050476 29.050446l-156.60776 0l0 0c-16.044128 0 -29.050446 -13.006317 -29.050446 -29.050446z" fill-rule="evenodd"/><path fill="#fff2cc" d="m416.6488 134.9255q0 0.75 -0.3125 1.359375q-0.3125 0.59375 -0.828125 1.03125q-0.515625 0.4375 -1.1875 0.671875q-0.671875 0.234375 -1.40625 0.234375q-1.0 0 -1.84375 -0.359375q-0.828125 -0.375 -1.328125 -1.109375l0 1.265625l-1.046875 0l0 -3.609375l1.046875 0q0 0.609375 0.28125 1.109375q0.28125 0.5 0.71875 0.875q0.4375 0.359375 1.0 0.5625q0.578125 0.203125 1.171875 0.203125q0.53125 0 0.96875 -0.140625q0.453125 -0.15625 0.78125 -0.4375q0.34375 -0.28125 0.53125 -0.671875q0.203125 -0.40625 0.203125 -0.921875q0 -0.5625 -0.25 -0.96875q-0.25 -0.421875 -0.671875 -0.703125q-0.421875 -0.296875 -0.953125 -0.5q-0.53125 -0.203125 -1.078125 -0.40625q-0.640625 -0.234375 -1.296875 -0.484375q-0.640625 -0.25 -1.15625 -0.625q-0.5 -0.390625 -0.828125 -0.9375q-0.3125 -0.546875 -0.3125 -1.375q0 -0.71875 0.3125 -1.28125q0.3125 -0.578125 0.8125 -0.96875q0.5 -0.390625 1.15625 -0.59375q0.671875 -0.21875 1.375 -0.21875q0.859375 0 1.59375 0.359375q0.734375 0.359375 1.140625 1.078125l0 -1.234375l1.109375 0l0 3.40625l-1.109375 0q0 -0.546875 -0.21875 -1.015625q-0.21875 -0.46875 -0.609375 -0.796875q-0.375 -0.328125 -0.875 -0.515625q-0.484375 -0.203125 -1.03125 -0.203125q-0.484375 0 -0.921875 0.109375q-0.4375 0.109375 -0.765625 0.34375q-0.328125 0.234375 -0.53125 0.625q-0.1875 0.375 -0.1875 0.90625q0 0.46875 0.234375 0.796875q0.234375 0.328125 0.625 0.578125q0.390625 0.25 0.90625 0.453125q0.515625 0.203125 1.046875 0.421875q0.671875 0.234375 1.328125 0.53125q0.671875 0.28125 1.203125 0.703125q0.53125 0.40625 0.859375 1.0q0.34375 0.59375 0.34375 1.453125zm10.575043 0.390625q-0.140625 1.34375 -1.046875 2.125q-0.90625 0.78125 -2.265625 0.78125q-0.75 0 -1.375 -0.234375q-0.609375 -0.25 -1.046875 -0.6875q-0.4375 -0.4375 -0.6875 -1.046875q-0.234375 -0.625 -0.234375 -1.34375l0 -4.3125l-1.921875 0l0 -1.0625l1.921875 0l0 -3.40625l1.25 0l0 3.40625l3.609375 0l0 1.0625l-3.609375 0l0 4.3125q0 0.453125 0.140625 0.875q0.15625 0.40625 0.421875 0.71875q0.28125 0.296875 0.65625 0.484375q0.375 0.171875 0.875 0.171875q0.921875 0 1.546875 -0.578125q0.625 -0.578125 0.71875 -1.5l1.046875 0.234375zm1.5906677 0.40625q0 -0.796875 0.390625 -1.34375q0.40625 -0.546875 1.0625 -0.859375q0.65625 -0.3125 1.484375 -0.453125q0.84375 -0.140625 1.71875 -0.140625q0.34375 0 0.609375 0.015625q0.265625 0 0.5 0.03125q0.25 0.015625 0.5 0.046875q0.25 0.015625 0.53125 0.046875l0 -0.609375q0 -0.609375 -0.265625 -1.015625q-0.265625 -0.40625 -0.65625 -0.625q-0.390625 -0.234375 -0.828125 -0.328125q-0.421875 -0.109375 -0.71875 -0.109375q-0.953125 0 -1.75 0.265625q-0.796875 0.25 -1.5 0.671875l-0.5625 -0.9375q0.765625 -0.453125 1.71875 -0.75q0.953125 -0.296875 2.09375 -0.296875q0.6875 0 1.359375 0.1875q0.671875 0.171875 1.203125 0.546875q0.53125 0.359375 0.84375 0.96875q0.328125 0.59375 0.328125 1.421875l0 5.5625l-1.265625 0l0 -1.421875q-0.328125 0.40625 -0.75 0.71875q-0.40625 0.3125 -0.859375 0.515625q-0.453125 0.1875 -0.90625 0.28125q-0.453125 0.109375 -0.875 0.109375q-1.671875 0 -2.546875 -0.640625q-0.859375 -0.640625 -0.859375 -1.859375zm3.40625 1.4375q0.796875 0 1.40625 -0.234375q0.625 -0.234375 1.0625 -0.578125q0.4375 -0.34375 0.671875 -0.734375q0.25 -0.390625 0.25 -0.703125l0 -0.8125q-0.609375 -0.09375 -1.171875 -0.09375q-0.546875 -0.015625 -0.96875 -0.015625q-0.671875 0 -1.296875 0.09375q-0.625 0.09375 -1.09375 0.296875q-0.453125 0.203125 -0.734375 0.53125q-0.28125 0.328125 -0.28125 0.8125q0 0.53125 0.515625 0.984375q0.53125 0.453125 1.640625 0.453125zm14.840668 0.765625q0 0.875 -0.3125 1.5625q-0.296875 0.6875 -0.84375 1.15625q-0.53125 0.46875 -1.265625 0.71875q-0.734375 0.25 -1.640625 0.25q-1.265625 0 -2.15625 -0.46875q-0.875 -0.46875 -1.53125 -1.359375l0.875 -0.6875q0.390625 0.59375 1.125 1.0q0.75 0.40625 1.6875 0.40625q1.296875 0 2.046875 -0.65625q0.75 -0.65625 0.75 -1.875l0 -0.921875q-1.109375 0.984375 -2.53125 0.984375q-1.984375 0 -3.125 -1.140625q-1.140625 -1.140625 -1.140625 -3.109375q0 -0.96875 0.296875 -1.78125q0.296875 -0.8125 0.84375 -1.40625q0.546875 -0.609375 1.34375 -0.9375q0.796875 -0.328125 1.78125 -0.328125q0.703125 0 1.34375 0.25q0.65625 0.234375 1.1875 0.71875l0 -0.765625l1.265625 0l0 8.390625zm-1.265625 -6.421875q-0.53125 -0.59375 -1.171875 -0.859375q-0.640625 -0.265625 -1.359375 -0.265625q-0.75 0 -1.3125 0.265625q-0.5625 0.265625 -0.9375 0.734375q-0.375 0.453125 -0.578125 1.078125q-0.1875 0.609375 -0.1875 1.328125q0 1.453125 0.75 2.328125q0.75 0.859375 2.265625 0.859375q0.71875 0 1.359375 -0.265625q0.640625 -0.265625 1.171875 -0.875l0 -4.328125zm8.496918 -3.671875l-1.703125 0l0 -1.703125l1.703125 0l0 1.703125zm1.6875 10.1875l-5.09375 0l0 -1.0625l1.921875 0l0 -6.359375l-1.921875 0l0 -1.0625l3.1875 0l0 7.421875l1.90625 0l0 1.0625zm11.450043 0l-1.265625 0l0 -5.234375q0 -1.140625 -0.5 -1.765625q-0.484375 -0.640625 -1.578125 -0.640625q-0.6875 0 -1.25 0.328125q-0.5625 0.3125 -0.953125 0.84375q-0.390625 0.53125 -0.609375 1.21875q-0.203125 0.6875 -0.203125 1.4375l0 3.8125l-1.234375 0l0 -8.484375l1.234375 0l0 2.125q0.90625 -2.328125 3.21875 -2.328125q3.140625 0 3.140625 3.453125l0 5.234375zm10.184418 -0.09375q0 0.875 -0.3125 1.5625q-0.296875 0.6875 -0.84375 1.15625q-0.53125 0.46875 -1.265625 0.71875q-0.734375 0.25 -1.640625 0.25q-1.265625 0 -2.15625 -0.46875q-0.875 -0.46875 -1.53125 -1.359375l0.875 -0.6875q0.390625 0.59375 1.125 1.0q0.75 0.40625 1.6875 0.40625q1.296875 0 2.046875 -0.65625q0.75 -0.65625 0.75 -1.875l0 -0.921875q-1.109375 0.984375 -2.53125 0.984375q-1.984375 0 -3.125 -1.140625q-1.140625 -1.140625 -1.140625 -3.109375q0 -0.96875 0.296875 -1.78125q0.296875 -0.8125 0.84375 -1.40625q0.546875 -0.609375 1.34375 -0.9375q0.796875 -0.328125 1.78125 -0.328125q0.703125 0 1.34375 0.25q0.65625 0.234375 1.1875 0.71875l0 -0.765625l1.265625 0l0 8.390625zm-1.265625 -6.421875q-0.53125 -0.59375 -1.171875 -0.859375q-0.640625 -0.265625 -1.359375 -0.265625q-0.75 0 -1.3125 0.265625q-0.5625 0.265625 -0.9375 0.734375q-0.375 0.453125 -0.578125 1.078125q-0.1875 0.609375 -0.1875 1.328125q0 1.453125 0.75 2.328125q0.75 0.859375 2.265625 0.859375q0.71875 0 1.359375 -0.265625q0.640625 -0.265625 1.171875 -0.875l0 -4.328125zm21.775085 3.421875q0 0.75 -0.3125 1.359375q-0.3125 0.59375 -0.828125 1.03125q-0.515625 0.4375 -1.1875 0.671875q-0.671875 0.234375 -1.40625 0.234375q-1.0 0 -1.84375 -0.359375q-0.828125 -0.375 -1.328125 -1.109375l0 1.265625l-1.046875 0l0 -3.609375l1.046875 0q0 0.609375 0.28125 1.109375q0.28125 0.5 0.71875 0.875q0.4375 0.359375 1.0 0.5625q0.578125 0.203125 1.171875 0.203125q0.53125 0 0.96875 -0.140625q0.453125 -0.15625 0.78125 -0.4375q0.34375 -0.28125 0.53125 -0.671875q0.203125 -0.40625 0.203125 -0.921875q0 -0.5625 -0.25 -0.96875q-0.25 -0.421875 -0.671875 -0.703125q-0.421875 -0.296875 -0.953125 -0.5q-0.53125 -0.203125 -1.078125 -0.40625q-0.640625 -0.234375 -1.296875 -0.484375q-0.640625 -0.25 -1.15625 -0.625q-0.5 -0.390625 -0.828125 -0.9375q-0.3125 -0.546875 -0.3125 -1.375q0 -0.71875 0.3125 -1.28125q0.3125 -0.578125 0.8125 -0.96875q0.5 -0.390625 1.15625 -0.59375q0.671875 -0.21875 1.375 -0.21875q0.859375 0 1.59375 0.359375q0.734375 0.359375 1.140625 1.078125l0 -1.234375l1.109375 0l0 3.40625l-1.109375 0q0 -0.546875 -0.21875 -1.015625q-0.21875 -0.46875 -0.609375 -0.796875q-0.375 -0.328125 -0.875 -0.515625q-0.484375 -0.203125 -1.03125 -0.203125q-0.484375 0 -0.921875 0.109375q-0.4375 0.109375 -0.765625 0.34375q-0.328125 0.234375 -0.53125 0.625q-0.1875 0.375 -0.1875 0.90625q0 0.46875 0.234375 0.796875q0.234375 0.328125 0.625 0.578125q0.390625 0.25 0.90625 0.453125q0.515625 0.203125 1.046875 0.421875q0.671875 0.234375 1.328125 0.53125q0.671875 0.28125 1.203125 0.703125q0.53125 0.40625 0.859375 1.0q0.34375 0.59375 0.34375 1.453125zm3.2469177 -0.71875q0.140625 1.359375 0.984375 2.15625q0.84375 0.796875 2.203125 0.796875q0.953125 0 1.703125 -0.390625q0.75 -0.390625 1.125 -0.96875l0.875 0.59375q-0.640625 0.890625 -1.53125 1.359375q-0.875 0.46875 -2.171875 0.46875q-0.984375 0 -1.8125 -0.328125q-0.8125 -0.328125 -1.40625 -0.90625q-0.59375 -0.59375 -0.921875 -1.40625q-0.328125 -0.8125 -0.328125 -1.796875q0 -0.96875 0.296875 -1.78125q0.296875 -0.8125 0.84375 -1.40625q0.5625 -0.609375 1.359375 -0.9375q0.8125 -0.328125 1.796875 -0.328125q1.09375 0 1.90625 0.359375q0.8125 0.359375 1.34375 1.015625q0.546875 0.640625 0.796875 1.53125q0.265625 0.890625 0.265625 1.96875l-7.328125 0zm6.015625 -1.0625q-0.21875 -1.390625 -1.015625 -2.078125q-0.796875 -0.6875 -1.984375 -0.6875q-0.59375 0 -1.109375 0.203125q-0.5 0.203125 -0.890625 0.5625q-0.390625 0.359375 -0.65625 0.875q-0.265625 0.515625 -0.34375 1.125l6.0 0zm10.950043 -2.421875q-0.6875 -0.34375 -1.609375 -0.34375q-0.765625 0 -1.375 0.328125q-0.59375 0.328125 -1.015625 0.875q-0.421875 0.53125 -0.640625 1.21875q-0.21875 0.6875 -0.21875 1.40625l0 2.75l1.921875 0l0 1.0625l-5.09375 0l0 -1.0625l1.921875 0l0 -6.359375l-1.921875 0l0 -1.0625l3.171875 0l0 2.125q0.859375 -2.328125 3.25 -2.328125q0.640625 0 1.125 0.078125q0.484375 0.078125 0.890625 0.296875l-0.40625 1.015625zm10.918823 -1.1875l-3.671875 8.484375l-1.671875 0l-3.703125 -8.484375l1.5 0l3.03125 7.4375l3.03125 -7.4375l1.484375 0zm2.6687622 4.671875q0.140625 1.359375 0.984375 2.15625q0.84375 0.796875 2.203125 0.796875q0.953125 0 1.703125 -0.390625q0.75 -0.390625 1.125 -0.96875l0.875 0.59375q-0.640625 0.890625 -1.53125 1.359375q-0.875 0.46875 -2.171875 0.46875q-0.984375 0 -1.8125 -0.328125q-0.8125 -0.328125 -1.40625 -0.90625q-0.59375 -0.59375 -0.921875 -1.40625q-0.328125 -0.8125 -0.328125 -1.796875q0 -0.96875 0.296875 -1.78125q0.296875 -0.8125 0.84375 -1.40625q0.5625 -0.609375 1.359375 -0.9375q0.8125 -0.328125 1.796875 -0.328125q1.09375 0 1.90625 0.359375q0.8125 0.359375 1.34375 1.015625q0.546875 0.640625 0.796875 1.53125q0.265625 0.890625 0.265625 1.96875l-7.328125 0zm6.015625 -1.0625q-0.21875 -1.390625 -1.015625 -2.078125q-0.796875 -0.6875 -1.984375 -0.6875q-0.59375 0 -1.109375 0.203125q-0.5 0.203125 -0.890625 0.5625q-0.390625 0.359375 -0.65625 0.875q-0.265625 0.515625 -0.34375 1.125l6.0 0zm10.950073 -2.421875q-0.6875 -0.34375 -1.609375 -0.34375q-0.765625 0 -1.375 0.328125q-0.59375 0.328125 -1.015625 0.875q-0.421875 0.53125 -0.640625 1.21875q-0.21875 0.6875 -0.21875 1.40625l0 2.75l1.921875 0l0 1.0625l-5.09375 0l0 -1.0625l1.921875 0l0 -6.359375l-1.921875 0l0 -1.0625l3.171875 0l0 2.125q0.859375 -2.328125 3.25 -2.328125q0.640625 0 1.125 0.078125q0.484375 0.078125 0.890625 0.296875l-0.40625 1.015625zm10.418762 4.953125q0 0.734375 -0.375 1.234375q-0.375 0.484375 -0.96875 0.78125q-0.578125 0.296875 -1.3125 0.40625q-0.71875 0.125 -1.40625 0.125q-1.15625 0 -2.3125 -0.328125q-1.140625 -0.34375 -1.984375 -0.890625l0.5625 -1.078125q0.9375 0.59375 1.84375 0.921875q0.90625 0.3125 1.890625 0.3125q2.8125 0 2.8125 -1.453125q0 -0.359375 -0.234375 -0.578125q-0.234375 -0.21875 -0.625 -0.359375q-0.390625 -0.140625 -0.90625 -0.21875q-0.5 -0.09375 -1.046875 -0.171875q-0.71875 -0.09375 -1.421875 -0.234375q-0.6875 -0.140625 -1.28125 -0.40625q-0.578125 -0.28125 -0.921875 -0.734375q-0.34375 -0.453125 -0.34375 -1.203125q0 -0.625 0.3125 -1.09375q0.328125 -0.46875 0.859375 -0.78125q0.546875 -0.3125 1.28125 -0.453125q0.734375 -0.140625 1.515625 -0.140625q1.109375 0 2.0 0.265625q0.890625 0.25 1.59375 0.734375l-0.5 0.96875q-0.734375 -0.5 -1.484375 -0.703125q-0.734375 -0.21875 -1.609375 -0.21875q-0.390625 0 -0.875 0.078125q-0.484375 0.0625 -0.890625 0.234375q-0.40625 0.171875 -0.6875 0.4375q-0.28125 0.265625 -0.28125 0.671875q0 0.359375 0.234375 0.578125q0.234375 0.21875 0.625 0.359375q0.390625 0.140625 0.890625 0.21875q0.515625 0.078125 1.078125 0.15625q0.6875 0.09375 1.390625 0.234375q0.703125 0.140625 1.28125 0.40625q0.578125 0.25 0.9375 0.71875q0.359375 0.453125 0.359375 1.203125z" fill-rule="nonzero"/><path fill="#cc4125" d="m377.4901 289.7773l0 0c0 -16.42392 13.314209 -29.738129 29.738129 -29.738129l488.0828 0c7.887024 0 15.45105 3.1331177 21.028015 8.710114c5.5770264 5.5769653 8.710144 13.140991 8.710144 21.028015l0 118.948944c0 16.42392 -13.314209 29.738129 -29.73816 29.738129l-488.0828 0c-16.42392 0 -29.738129 -13.314209 -29.738129 -29.738129z" fill-rule="evenodd"/><path fill="#fff2cc" d="m568.0786 347.6874q0 1.71875 -1.078125 2.5625q-1.0625 0.828125 -3.015625 0.828125l-2.6875 0l0 5.09375l-1.234375 0l0 -11.890625l3.90625 0q1.96875 0 3.03125 0.859375q1.078125 0.84375 1.078125 2.546875zm-1.25 0q0 -1.234375 -0.78125 -1.78125q-0.765625 -0.5625 -2.0625 -0.5625l-2.6875 0l0 4.671875l2.6875 0q1.296875 0 2.0625 -0.546875q0.78125 -0.5625 0.78125 -1.78125zm10.996948 1.1875q-0.6875 -0.34375 -1.609375 -0.34375q-0.765625 0 -1.375 0.328125q-0.59375 0.328125 -1.015625 0.875q-0.421875 0.53125 -0.640625 1.21875q-0.21875 0.6875 -0.21875 1.40625l0 2.75l1.921875 0l0 1.0625l-5.09375 0l0 -1.0625l1.921875 0l0 -6.359375l-1.921875 0l0 -1.0625l3.171875 0l0 2.125q0.859375 -2.328125 3.25 -2.328125q0.640625 0 1.125 0.078125q0.484375 0.078125 0.890625 0.296875l-0.40625 1.015625zm10.856262 3.078125q0 1.0 -0.3125 1.8125q-0.3125 0.796875 -0.90625 1.375q-0.578125 0.578125 -1.40625 0.90625q-0.8125 0.328125 -1.828125 0.328125q-0.984375 0 -1.8125 -0.328125q-0.8125 -0.328125 -1.40625 -0.90625q-0.578125 -0.578125 -0.90625 -1.375q-0.3125 -0.8125 -0.3125 -1.8125q0 -0.96875 0.3125 -1.796875q0.328125 -0.828125 0.90625 -1.421875q0.59375 -0.59375 1.40625 -0.921875q0.828125 -0.328125 1.8125 -0.328125q1.015625 0 1.828125 0.328125q0.828125 0.328125 1.40625 0.921875q0.59375 0.59375 0.90625 1.421875q0.3125 0.828125 0.3125 1.796875zm-1.25 0q0 -0.734375 -0.21875 -1.34375q-0.203125 -0.609375 -0.625 -1.078125q-0.421875 -0.46875 -1.015625 -0.734375q-0.59375 -0.265625 -1.34375 -0.265625q-0.75 0 -1.34375 0.265625q-0.59375 0.265625 -1.0 0.734375q-0.40625 0.46875 -0.625 1.078125q-0.21875 0.609375 -0.21875 1.34375q0 0.734375 0.21875 1.34375q0.21875 0.609375 0.625 1.0625q0.40625 0.453125 1.0 0.703125q0.59375 0.25 1.34375 0.25q0.75 0 1.34375 -0.25q0.59375 -0.25 1.015625 -0.703125q0.421875 -0.453125 0.625 -1.0625q0.21875 -0.609375 0.21875 -1.34375zm10.778198 4.21875l-1.265625 0l0 -0.78125q-0.53125 0.484375 -1.171875 0.734375q-0.640625 0.25 -1.3125 0.25q-1.015625 0 -1.828125 -0.328125q-0.796875 -0.328125 -1.34375 -0.90625q-0.546875 -0.59375 -0.84375 -1.40625q-0.296875 -0.828125 -0.296875 -1.796875q0 -0.96875 0.296875 -1.78125q0.296875 -0.828125 0.84375 -1.421875q0.546875 -0.59375 1.34375 -0.921875q0.8125 -0.328125 1.828125 -0.328125q0.671875 0 1.3125 0.25q0.640625 0.234375 1.171875 0.71875l0 -3.109375l-1.6875 0l0 -1.0625l2.953125 0l0 11.890625zm-1.265625 -6.515625q-0.53125 -0.59375 -1.171875 -0.859375q-0.625 -0.265625 -1.34375 -0.265625q-0.734375 0 -1.3125 0.265625q-0.5625 0.265625 -0.953125 0.734375q-0.375 0.453125 -0.578125 1.0625q-0.1875 0.609375 -0.1875 1.34375q0 0.734375 0.1875 1.34375q0.203125 0.609375 0.578125 1.078125q0.390625 0.453125 0.953125 0.71875q0.578125 0.25 1.3125 0.25q1.453125 0 2.515625 -1.140625l0 -4.53125zm3.8562622 -1.96875l1.234375 0l0 5.234375q0 1.140625 0.5 1.765625q0.5 0.625 1.609375 0.625q0.6875 0 1.234375 -0.3125q0.5625 -0.328125 0.953125 -0.859375q0.390625 -0.53125 0.59375 -1.21875q0.203125 -0.6875 0.203125 -1.4375l0 -3.796875l1.265625 0l0 8.484375l-1.265625 0l0 -2.125q-0.890625 2.328125 -3.203125 2.328125q-3.125 0 -3.125 -3.453125l0 -5.234375zm17.903198 6.859375q-0.53125 0.84375 -1.46875 1.34375q-0.9375 0.484375 -2.21875 0.484375q-1.0 0 -1.828125 -0.328125q-0.828125 -0.328125 -1.421875 -0.90625q-0.578125 -0.59375 -0.90625 -1.40625q-0.328125 -0.8125 -0.328125 -1.796875q0 -0.96875 0.296875 -1.78125q0.296875 -0.828125 0.859375 -1.421875q0.5625 -0.59375 1.359375 -0.921875q0.8125 -0.328125 1.796875 -0.328125q0.390625 0 0.796875 0.09375q0.40625 0.078125 0.765625 0.265625q0.375 0.1875 0.65625 0.453125q0.296875 0.265625 0.453125 0.609375l0 -1.21875l1.109375 0l0 3.390625l-1.109375 0q0 -0.5625 -0.21875 -1.03125q-0.203125 -0.46875 -0.5625 -0.796875q-0.34375 -0.34375 -0.84375 -0.53125q-0.484375 -0.1875 -1.046875 -0.1875q-0.765625 0 -1.34375 0.265625q-0.5625 0.265625 -0.953125 0.734375q-0.375 0.453125 -0.578125 1.0625q-0.1875 0.609375 -0.1875 1.34375q0 0.734375 0.21875 1.34375q0.21875 0.609375 0.640625 1.0625q0.4375 0.4375 1.03125 0.703125q0.59375 0.265625 1.34375 0.265625q0.9375 0 1.671875 -0.375q0.75 -0.375 1.140625 -0.984375l0.875 0.59375zm10.590637 -1.078125q-0.140625 1.34375 -1.046875 2.125q-0.90625 0.78125 -2.265625 0.78125q-0.75 0 -1.375 -0.234375q-0.609375 -0.25 -1.046875 -0.6875q-0.4375 -0.4375 -0.6875 -1.046875q-0.234375 -0.625 -0.234375 -1.34375l0 -4.3125l-1.921875 0l0 -1.0625l1.921875 0l0 -3.40625l1.25 0l0 3.40625l3.609375 0l0 1.0625l-3.609375 0l0 4.3125q0 0.453125 0.140625 0.875q0.15625 0.40625 0.421875 0.71875q0.28125 0.296875 0.65625 0.484375q0.375 0.171875 0.875 0.171875q0.921875 0 1.546875 -0.578125q0.625 -0.578125 0.71875 -1.5l1.046875 0.234375zm6.7000732 -7.484375l-1.703125 0l0 -1.703125l1.703125 0l0 1.703125zm1.6875 10.1875l-5.09375 0l0 -1.0625l1.921875 0l0 -6.359375l-1.921875 0l0 -1.0625l3.1875 0l0 7.421875l1.90625 0l0 1.0625zm12.106262 -4.21875q0 1.0 -0.3125 1.8125q-0.3125 0.796875 -0.90625 1.375q-0.578125 0.578125 -1.40625 0.90625q-0.8125 0.328125 -1.828125 0.328125q-0.984375 0 -1.8125 -0.328125q-0.8125 -0.328125 -1.40625 -0.90625q-0.578125 -0.578125 -0.90625 -1.375q-0.3125 -0.8125 -0.3125 -1.8125q0 -0.96875 0.3125 -1.796875q0.328125 -0.828125 0.90625 -1.421875q0.59375 -0.59375 1.40625 -0.921875q0.828125 -0.328125 1.8125 -0.328125q1.015625 0 1.828125 0.328125q0.828125 0.328125 1.40625 0.921875q0.59375 0.59375 0.90625 1.421875q0.3125 0.828125 0.3125 1.796875zm-1.25 0q0 -0.734375 -0.21875 -1.34375q-0.203125 -0.609375 -0.625 -1.078125q-0.421875 -0.46875 -1.015625 -0.734375q-0.59375 -0.265625 -1.34375 -0.265625q-0.75 0 -1.34375 0.265625q-0.59375 0.265625 -1.0 0.734375q-0.40625 0.46875 -0.625 1.078125q-0.21875 0.609375 -0.21875 1.34375q0 0.734375 0.21875 1.34375q0.21875 0.609375 0.625 1.0625q0.40625 0.453125 1.0 0.703125q0.59375 0.25 1.34375 0.25q0.75 0 1.34375 -0.25q0.59375 -0.25 1.015625 -0.703125q0.421875 -0.453125 0.625 -1.0625q0.21875 -0.609375 0.21875 -1.34375zm10.778198 4.21875l-1.265625 0l0 -5.234375q0 -1.140625 -0.5 -1.765625q-0.484375 -0.640625 -1.578125 -0.640625q-0.6875 0 -1.25 0.328125q-0.5625 0.3125 -0.953125 0.84375q-0.390625 0.53125 -0.609375 1.21875q-0.203125 0.6875 -0.203125 1.4375l0 3.8125l-1.234375 0l0 -8.484375l1.234375 0l0 2.125q0.90625 -2.328125 3.21875 -2.328125q3.140625 0 3.140625 3.453125l0 5.234375zm20.50946 -3.09375q0 0.75 -0.3125 1.359375q-0.3125 0.59375 -0.828125 1.03125q-0.515625 0.4375 -1.1875 0.671875q-0.671875 0.234375 -1.40625 0.234375q-1.0 0 -1.84375 -0.359375q-0.828125 -0.375 -1.328125 -1.109375l0 1.265625l-1.046875 0l0 -3.609375l1.046875 0q0 0.609375 0.28125 1.109375q0.28125 0.5 0.71875 0.875q0.4375 0.359375 1.0 0.5625q0.578125 0.203125 1.171875 0.203125q0.53125 0 0.96875 -0.140625q0.453125 -0.15625 0.78125 -0.4375q0.34375 -0.28125 0.53125 -0.671875q0.203125 -0.40625 0.203125 -0.921875q0 -0.5625 -0.25 -0.96875q-0.25 -0.421875 -0.671875 -0.703125q-0.421875 -0.296875 -0.953125 -0.5q-0.53125 -0.203125 -1.078125 -0.40625q-0.640625 -0.234375 -1.296875 -0.484375q-0.640625 -0.25 -1.15625 -0.625q-0.5 -0.390625 -0.828125 -0.9375q-0.3125 -0.546875 -0.3125 -1.375q0 -0.71875 0.3125 -1.28125q0.3125 -0.578125 0.8125 -0.96875q0.5 -0.390625 1.15625 -0.59375q0.671875 -0.21875 1.375 -0.21875q0.859375 0 1.59375 0.359375q0.734375 0.359375 1.140625 1.078125l0 -1.234375l1.109375 0l0 3.40625l-1.109375 0q0 -0.546875 -0.21875 -1.015625q-0.21875 -0.46875 -0.609375 -0.796875q-0.375 -0.328125 -0.875 -0.515625q-0.484375 -0.203125 -1.03125 -0.203125q-0.484375 0 -0.921875 0.109375q-0.4375 0.109375 -0.765625 0.34375q-0.328125 0.234375 -0.53125 0.625q-0.1875 0.375 -0.1875 0.90625q0 0.46875 0.234375 0.796875q0.234375 0.328125 0.625 0.578125q0.390625 0.25 0.90625 0.453125q0.515625 0.203125 1.046875 0.421875q0.671875 0.234375 1.328125 0.53125q0.671875 0.28125 1.203125 0.703125q0.53125 0.40625 0.859375 1.0q0.34375 0.59375 0.34375 1.453125zm3.2468872 -0.71875q0.140625 1.359375 0.984375 2.15625q0.84375 0.796875 2.203125 0.796875q0.953125 0 1.703125 -0.390625q0.75 -0.390625 1.125 -0.96875l0.875 0.59375q-0.640625 0.890625 -1.53125 1.359375q-0.875 0.46875 -2.171875 0.46875q-0.984375 0 -1.8125 -0.328125q-0.8125 -0.328125 -1.40625 -0.90625q-0.59375 -0.59375 -0.921875 -1.40625q-0.328125 -0.8125 -0.328125 -1.796875q0 -0.96875 0.296875 -1.78125q0.296875 -0.8125 0.84375 -1.40625q0.5625 -0.609375 1.359375 -0.9375q0.8125 -0.328125 1.796875 -0.328125q1.09375 0 1.90625 0.359375q0.8125 0.359375 1.34375 1.015625q0.546875 0.640625 0.796875 1.53125q0.265625 0.890625 0.265625 1.96875l-7.328125 0zm6.015625 -1.0625q-0.21875 -1.390625 -1.015625 -2.078125q-0.796875 -0.6875 -1.984375 -0.6875q-0.59375 0 -1.109375 0.203125q-0.5 0.203125 -0.890625 0.5625q-0.390625 0.359375 -0.65625 0.875q-0.265625 0.515625 -0.34375 1.125l6.0 0zm10.950073 -2.421875q-0.6875 -0.34375 -1.609375 -0.34375q-0.765625 0 -1.375 0.328125q-0.59375 0.328125 -1.015625 0.875q-0.421875 0.53125 -0.640625 1.21875q-0.21875 0.6875 -0.21875 1.40625l0 2.75l1.921875 0l0 1.0625l-5.09375 0l0 -1.0625l1.921875 0l0 -6.359375l-1.921875 0l0 -1.0625l3.171875 0l0 2.125q0.859375 -2.328125 3.25 -2.328125q0.640625 0 1.125 0.078125q0.484375 0.078125 0.890625 0.296875l-0.40625 1.015625zm10.918762 -1.1875l-3.671875 8.484375l-1.671875 0l-3.703125 -8.484375l1.5 0l3.03125 7.4375l3.03125 -7.4375l1.484375 0zm2.6688232 4.671875q0.140625 1.359375 0.984375 2.15625q0.84375 0.796875 2.203125 0.796875q0.953125 0 1.703125 -0.390625q0.75 -0.390625 1.125 -0.96875l0.875 0.59375q-0.640625 0.890625 -1.53125 1.359375q-0.875 0.46875 -2.171875 0.46875q-0.984375 0 -1.8125 -0.328125q-0.8125 -0.328125 -1.40625 -0.90625q-0.59375 -0.59375 -0.921875 -1.40625q-0.328125 -0.8125 -0.328125 -1.796875q0 -0.96875 0.296875 -1.78125q0.296875 -0.8125 0.84375 -1.40625q0.5625 -0.609375 1.359375 -0.9375q0.8125 -0.328125 1.796875 -0.328125q1.09375 0 1.90625 0.359375q0.8125 0.359375 1.34375 1.015625q0.546875 0.640625 0.796875 1.53125q0.265625 0.890625 0.265625 1.96875l-7.328125 0zm6.015625 -1.0625q-0.21875 -1.390625 -1.015625 -2.078125q-0.796875 -0.6875 -1.984375 -0.6875q-0.59375 0 -1.109375 0.203125q-0.5 0.203125 -0.890625 0.5625q-0.390625 0.359375 -0.65625 0.875q-0.265625 0.515625 -0.34375 1.125l6.0 0zm10.950012 -2.421875q-0.6875 -0.34375 -1.609375 -0.34375q-0.765625 0 -1.375 0.328125q-0.59375 0.328125 -1.015625 0.875q-0.421875 0.53125 -0.640625 1.21875q-0.21875 0.6875 -0.21875 1.40625l0 2.75l1.921875 0l0 1.0625l-5.09375 0l0 -1.0625l1.921875 0l0 -6.359375l-1.921875 0l0 -1.0625l3.171875 0l0 2.125q0.859375 -2.328125 3.25 -2.328125q0.640625 0 1.125 0.078125q0.484375 0.078125 0.890625 0.296875l-0.40625 1.015625zm10.418823 4.953125q0 0.734375 -0.375 1.234375q-0.375 0.484375 -0.96875 0.78125q-0.578125 0.296875 -1.3125 0.40625q-0.71875 0.125 -1.40625 0.125q-1.15625 0 -2.3125 -0.328125q-1.140625 -0.34375 -1.984375 -0.890625l0.5625 -1.078125q0.9375 0.59375 1.84375 0.921875q0.90625 0.3125 1.890625 0.3125q2.8125 0 2.8125 -1.453125q0 -0.359375 -0.234375 -0.578125q-0.234375 -0.21875 -0.625 -0.359375q-0.390625 -0.140625 -0.90625 -0.21875q-0.5 -0.09375 -1.046875 -0.171875q-0.71875 -0.09375 -1.421875 -0.234375q-0.6875 -0.140625 -1.28125 -0.40625q-0.578125 -0.28125 -0.921875 -0.734375q-0.34375 -0.453125 -0.34375 -1.203125q0 -0.625 0.3125 -1.09375q0.328125 -0.46875 0.859375 -0.78125q0.546875 -0.3125 1.28125 -0.453125q0.734375 -0.140625 1.515625 -0.140625q1.109375 0 2.0 0.265625q0.890625 0.25 1.59375 0.734375l-0.5 0.96875q-0.734375 -0.5 -1.484375 -0.703125q-0.734375 -0.21875 -1.609375 -0.21875q-0.390625 0 -0.875 0.078125q-0.484375 0.0625 -0.890625 0.234375q-0.40625 0.171875 -0.6875 0.4375q-0.28125 0.265625 -0.28125 0.671875q0 0.359375 0.234375 0.578125q0.234375 0.21875 0.625 0.359375q0.390625 0.140625 0.890625 0.21875q0.515625 0.078125 1.078125 0.15625q0.6875 0.09375 1.390625 0.234375q0.703125 0.140625 1.28125 0.40625q0.578125 0.25 0.9375 0.71875q0.359375 0.453125 0.359375 1.203125z" fill-rule="nonzero"/><path fill="#a64d79" d="m34.883896 568.14154l0 0c0 -11.817139 9.579655 -21.39679 21.396755 -21.39679l847.41125 0c5.6747437 0 11.117065 2.2542725 15.129761 6.266968c4.0126953 4.0126953 6.266968 9.455017 6.266968 15.129822l0 85.58441c0 11.817078 -9.579651 21.396729 -21.396729 21.396729l-847.41125 0c-11.817101 0 -21.396755 -9.579651 -21.396755 -21.396729z" fill-rule="evenodd"/><path stroke="#a64d79" stroke-width="1.0" stroke-linejoin="round" stroke-linecap="butt" d="m34.883896 568.14154l0 0c0 -11.817139 9.579655 -21.39679 21.396755 -21.39679l847.41125 0c5.6747437 0 11.117065 2.2542725 15.129761 6.266968c4.0126953 4.0126953 6.266968 9.455017 6.266968 15.129822l0 85.58441c0 11.817078 -9.579651 21.396729 -21.396729 21.396729l-847.41125 0c-11.817101 0 -21.396755 -9.579651 -21.396755 -21.396729z" fill-rule="evenodd"/><path fill="#fff2cc" d="m462.5721 613.6194q0 1.015625 -0.234375 1.84375q-0.21875 0.8125 -0.6875 1.390625q-0.46875 0.578125 -1.1875 0.890625q-0.71875 0.3125 -1.703125 0.3125q-0.984375 0 -1.703125 -0.3125q-0.71875 -0.3125 -1.1875 -0.890625q-0.453125 -0.578125 -0.671875 -1.40625q-0.21875 -0.84375 -0.21875 -1.84375l0 -7.640625l1.234375 0l0 7.65625q0 0.53125 0.09375 1.140625q0.109375 0.59375 0.375 1.09375q0.28125 0.484375 0.78125 0.8125q0.5 0.328125 1.296875 0.328125q0.796875 0 1.296875 -0.328125q0.515625 -0.328125 0.796875 -0.8125q0.28125 -0.5 0.359375 -1.09375q0.09375 -0.609375 0.09375 -1.140625l0 -7.65625l1.265625 0l0 7.65625zm10.403168 1.890625q0 0.734375 -0.375 1.234375q-0.375 0.484375 -0.96875 0.78125q-0.578125 0.296875 -1.3125 0.40625q-0.71875 0.125 -1.40625 0.125q-1.15625 0 -2.3125 -0.328125q-1.140625 -0.34375 -1.984375 -0.890625l0.5625 -1.078125q0.9375 0.59375 1.84375 0.921875q0.90625 0.3125 1.890625 0.3125q2.8125 0 2.8125 -1.453125q0 -0.359375 -0.234375 -0.578125q-0.234375 -0.21875 -0.625 -0.359375q-0.390625 -0.140625 -0.90625 -0.21875q-0.5 -0.09375 -1.046875 -0.171875q-0.71875 -0.09375 -1.421875 -0.234375q-0.6875 -0.140625 -1.28125 -0.40625q-0.578125 -0.28125 -0.921875 -0.734375q-0.34375 -0.453125 -0.34375 -1.203125q0 -0.625 0.3125 -1.09375q0.328125 -0.46875 0.859375 -0.78125q0.546875 -0.3125 1.28125 -0.453125q0.734375 -0.140625 1.515625 -0.140625q1.109375 0 2.0 0.265625q0.890625 0.25 1.59375 0.734375l-0.5 0.96875q-0.734375 -0.5 -1.484375 -0.703125q-0.734375 -0.21875 -1.609375 -0.21875q-0.390625 0 -0.875 0.078125q-0.484375 0.0625 -0.890625 0.234375q-0.40625 0.171875 -0.6875 0.4375q-0.28125 0.265625 -0.28125 0.671875q0 0.359375 0.234375 0.578125q0.234375 0.21875 0.625 0.359375q0.390625 0.140625 0.890625 0.21875q0.515625 0.078125 1.078125 0.15625q0.6875 0.09375 1.390625 0.234375q0.703125 0.140625 1.28125 0.40625q0.578125 0.25 0.9375 0.71875q0.359375 0.453125 0.359375 1.203125zm3.1687927 -1.46875q0.140625 1.359375 0.984375 2.15625q0.84375 0.796875 2.203125 0.796875q0.953125 0 1.703125 -0.390625q0.75 -0.390625 1.125 -0.96875l0.875 0.59375q-0.640625 0.890625 -1.53125 1.359375q-0.875 0.46875 -2.171875 0.46875q-0.984375 0 -1.8125 -0.328125q-0.8125 -0.328125 -1.40625 -0.90625q-0.59375 -0.59375 -0.921875 -1.40625q-0.328125 -0.8125 -0.328125 -1.796875q0 -0.96875 0.296875 -1.78125q0.296875 -0.8125 0.84375 -1.40625q0.5625 -0.609375 1.359375 -0.9375q0.8125 -0.328125 1.796875 -0.328125q1.09375 0 1.90625 0.359375q0.8125 0.359375 1.34375 1.015625q0.546875 0.640625 0.796875 1.53125q0.265625 0.890625 0.265625 1.96875l-7.328125 0zm6.015625 -1.0625q-0.21875 -1.390625 -1.015625 -2.078125q-0.796875 -0.6875 -1.984375 -0.6875q-0.59375 0 -1.109375 0.203125q-0.5 0.203125 -0.890625 0.5625q-0.390625 0.359375 -0.65625 0.875q-0.265625 0.515625 -0.34375 1.125l6.0 0zm10.950043 -2.421875q-0.6875 -0.34375 -1.609375 -0.34375q-0.765625 0 -1.375 0.328125q-0.59375 0.328125 -1.015625 0.875q-0.421875 0.53125 -0.640625 1.21875q-0.21875 0.6875 -0.21875 1.40625l0 2.75l1.921875 0l0 1.0625l-5.09375 0l0 -1.0625l1.921875 0l0 -6.359375l-1.921875 0l0 -1.0625l3.171875 0l0 2.125q0.859375 -2.328125 3.25 -2.328125q0.640625 0 1.125 0.078125q0.484375 0.078125 0.890625 0.296875l-0.40625 1.015625zm10.418793 4.953125q0 0.734375 -0.375 1.234375q-0.375 0.484375 -0.96875 0.78125q-0.578125 0.296875 -1.3125 0.40625q-0.71875 0.125 -1.40625 0.125q-1.15625 0 -2.3125 -0.328125q-1.140625 -0.34375 -1.984375 -0.890625l0.5625 -1.078125q0.9375 0.59375 1.84375 0.921875q0.90625 0.3125 1.890625 0.3125q2.8125 0 2.8125 -1.453125q0 -0.359375 -0.234375 -0.578125q-0.234375 -0.21875 -0.625 -0.359375q-0.390625 -0.140625 -0.90625 -0.21875q-0.5 -0.09375 -1.046875 -0.171875q-0.71875 -0.09375 -1.421875 -0.234375q-0.6875 -0.140625 -1.28125 -0.40625q-0.578125 -0.28125 -0.921875 -0.734375q-0.34375 -0.453125 -0.34375 -1.203125q0 -0.625 0.3125 -1.09375q0.328125 -0.46875 0.859375 -0.78125q0.546875 -0.3125 1.28125 -0.453125q0.734375 -0.140625 1.515625 -0.140625q1.109375 0 2.0 0.265625q0.890625 0.25 1.59375 0.734375l-0.5 0.96875q-0.734375 -0.5 -1.484375 -0.703125q-0.734375 -0.21875 -1.609375 -0.21875q-0.390625 0 -0.875 0.078125q-0.484375 0.0625 -0.890625 0.234375q-0.40625 0.171875 -0.6875 0.4375q-0.28125 0.265625 -0.28125 0.671875q0 0.359375 0.234375 0.578125q0.234375 0.21875 0.625 0.359375q0.390625 0.140625 0.890625 0.21875q0.515625 0.078125 1.078125 0.15625q0.6875 0.09375 1.390625 0.234375q0.703125 0.140625 1.28125 0.40625q0.578125 0.25 0.9375 0.71875q0.359375 0.453125 0.359375 1.203125z" fill-rule="nonzero"/><path fill="#45818e" d="m34.883896 71.78445l0 0c0 -23.083359 18.712757 -41.796112 41.796112 -41.796112l167.17943 0l0 0c11.085022 0 21.716034 4.4035053 29.554321 12.2417965c7.8382874 7.838295 12.241791 18.4693 12.241791 29.554317l0 324.9432c0 23.083344 -18.712769 41.796112 -41.796112 41.796112l-167.17943 0c-23.083355 0 -41.796112 -18.712769 -41.796112 -41.796112z" fill-rule="evenodd"/><path fill="#fff2cc" d="m113.130424 371.23856q0 1.203125 -0.25 2.28125q-0.25 1.078125 -0.796875 1.890625q-0.546875 0.8125 -1.421875 1.296875q-0.875 0.46875 -2.09375 0.46875l-3.859375 0l0 -11.890625l3.859375 0q1.203125 0 2.078125 0.5q0.875 0.484375 1.421875 1.296875q0.546875 0.8125 0.796875 1.890625q0.265625 1.078125 0.265625 2.265625zm-1.234375 0q0 -2.328125 -0.890625 -3.609375q-0.875 -1.28125 -2.4375 -1.28125l-2.625 0l0 9.765625l2.625 0q1.5625 0 2.4375 -1.265625q0.890625 -1.265625 0.890625 -3.609375zm3.7937927 2.125q0.140625 1.359375 0.984375 2.15625q0.84375 0.796875 2.203125 0.796875q0.953125 0 1.703125 -0.390625q0.75 -0.390625 1.125 -0.96875l0.875 0.59375q-0.640625 0.890625 -1.53125 1.359375q-0.875 0.46875 -2.171875 0.46875q-0.984375 0 -1.8125 -0.328125q-0.8125 -0.328125 -1.40625 -0.90625q-0.59375 -0.59375 -0.921875 -1.40625q-0.328125 -0.8125 -0.328125 -1.796875q0 -0.96875 0.296875 -1.78125q0.296875 -0.8125 0.84375 -1.40625q0.5625 -0.609375 1.359375 -0.9375q0.8125 -0.328125 1.796875 -0.328125q1.09375 0 1.90625 0.359375q0.8125 0.359375 1.34375 1.015625q0.546875 0.640625 0.796875 1.53125q0.265625 0.890625 0.265625 1.96875l-7.328125 0zm6.015625 -1.0625q-0.21875 -1.390625 -1.015625 -2.078125q-0.796875 -0.6875 -1.984375 -0.6875q-0.59375 0 -1.109375 0.203125q-0.5 0.203125 -0.890625 0.5625q-0.390625 0.359375 -0.65625 0.875q-0.265625 0.515625 -0.34375 1.125l6.0 0zm11.684425 -3.609375l-3.671875 8.484375l-1.671875 0l-3.7031326 -8.484375l1.5 0l3.0312576 7.4375l3.03125 -7.4375l1.484375 0zm2.6687927 4.671875q0.140625 1.359375 0.984375 2.15625q0.84375 0.796875 2.203125 0.796875q0.953125 0 1.703125 -0.390625q0.75 -0.390625 1.125 -0.96875l0.875 0.59375q-0.640625 0.890625 -1.53125 1.359375q-0.875 0.46875 -2.171875 0.46875q-0.984375 0 -1.8125 -0.328125q-0.8125 -0.328125 -1.40625 -0.90625q-0.59375 -0.59375 -0.921875 -1.40625q-0.328125 -0.8125 -0.328125 -1.796875q0 -0.96875 0.296875 -1.78125q0.296875 -0.8125 0.84375 -1.40625q0.5625 -0.609375 1.359375 -0.9375q0.8125 -0.328125 1.796875 -0.328125q1.09375 0 1.90625 0.359375q0.8125 0.359375 1.34375 1.015625q0.546875 0.640625 0.796875 1.53125q0.265625 0.890625 0.265625 1.96875l-7.328125 0zm6.015625 -1.0625q-0.21875 -1.390625 -1.015625 -2.078125q-0.796875 -0.6875 -1.984375 -0.6875q-0.59375 0 -1.109375 0.203125q-0.5 0.203125 -0.890625 0.5625q-0.390625 0.359375 -0.65625 0.875q-0.265625 0.515625 -0.34375 1.125l6.0 0zm9.700043 4.875l-5.09375 0l0 -1.0625l1.921875 0l0 -9.765625l-1.921875 0l0 -1.0625l3.1875 0l0 10.828125l1.90625 0l0 1.0625zm12.106293 -4.21875q0 1.0 -0.3125 1.8125q-0.3125 0.796875 -0.90625 1.375q-0.578125 0.578125 -1.40625 0.90625q-0.8125 0.328125 -1.828125 0.328125q-0.984375 0 -1.8125 -0.328125q-0.8125 -0.328125 -1.40625 -0.90625q-0.578125 -0.578125 -0.90625 -1.375q-0.3125 -0.8125 -0.3125 -1.8125q0 -0.96875 0.3125 -1.796875q0.328125 -0.828125 0.90625 -1.421875q0.59375 -0.59375 1.40625 -0.921875q0.828125 -0.328125 1.8125 -0.328125q1.015625 0 1.828125 0.328125q0.828125 0.328125 1.40625 0.921875q0.59375 0.59375 0.90625 1.421875q0.3125 0.828125 0.3125 1.796875zm-1.25 0q0 -0.734375 -0.21875 -1.34375q-0.203125 -0.609375 -0.625 -1.078125q-0.421875 -0.46875 -1.015625 -0.734375q-0.59375 -0.265625 -1.34375 -0.265625q-0.75 0 -1.34375 0.265625q-0.59375 0.265625 -1.0 0.734375q-0.40625 0.46875 -0.625 1.078125q-0.21875 0.609375 -0.21875 1.34375q0 0.734375 0.21875 1.34375q0.21875 0.609375 0.625 1.0625q0.40625 0.453125 1.0 0.703125q0.59375 0.25 1.34375 0.25q0.75 0 1.34375 -0.25q0.59375 -0.25 1.015625 -0.703125q0.421875 -0.453125 0.625 -1.0625q0.21875 -0.609375 0.21875 -1.34375zm11.215668 -0.015625q0 0.984375 -0.3125 1.796875q-0.296875 0.8125 -0.859375 1.40625q-0.5625 0.578125 -1.359375 0.90625q-0.78125 0.328125 -1.765625 0.328125q-0.6875 0 -1.328125 -0.234375q-0.625 -0.25 -1.171875 -0.734375l0 4.15625l-1.234375 0l0 -11.875l1.234375 0l0 0.78125q1.15625 -0.984375 2.5 -0.984375q0.984375 0 1.765625 0.328125q0.796875 0.3125 1.359375 0.921875q0.5625 0.59375 0.859375 1.421875q0.3125 0.8125 0.3125 1.78125zm-1.25 0q0 -0.71875 -0.203125 -1.328125q-0.1875 -0.625 -0.578125 -1.078125q-0.390625 -0.46875 -0.96875 -0.734375q-0.5625 -0.265625 -1.296875 -0.265625q-0.71875 0 -1.34375 0.265625q-0.609375 0.265625 -1.15625 0.859375l0 4.5625q0.546875 0.59375 1.15625 0.84375q0.625 0.25 1.34375 0.25q0.734375 0 1.296875 -0.265625q0.578125 -0.265625 0.96875 -0.71875q0.390625 -0.453125 0.578125 -1.0625q0.203125 -0.625 0.203125 -1.328125zm11.434418 4.234375l-1.25 0l0 -6.109375q0 -0.71875 -0.25 -1.125q-0.25 -0.40625 -0.734375 -0.40625q-0.71875 0 -1.046875 0.75q-0.328125 0.75 -0.328125 2.09375l0 4.796875l-1.265625 0l0 -6.109375q0 -0.71875 -0.265625 -1.125q-0.25 -0.40625 -0.734375 -0.40625q-0.4375 0 -0.703125 0.265625q-0.265625 0.265625 -0.421875 0.6875q-0.140625 0.40625 -0.1875 0.90625q-0.046875 0.5 -0.046875 0.984375l0 4.796875l-1.25 0l0 -8.484375l1.25 0l0 1.21875q0.390625 -1.421875 1.703125 -1.421875q1.25 0 1.6875 1.25q0.625 -1.25 1.75 -1.25q1.09375 0 1.59375 0.640625q0.5 0.640625 0.5 1.9375l0 6.109375zm2.9500427 -3.8125q0.140625 1.359375 0.984375 2.15625q0.84375 0.796875 2.203125 0.796875q0.953125 0 1.703125 -0.390625q0.75 -0.390625 1.125 -0.96875l0.875 0.59375q-0.640625 0.890625 -1.53125 1.359375q-0.875 0.46875 -2.171875 0.46875q-0.984375 0 -1.8125 -0.328125q-0.8125 -0.328125 -1.40625 -0.90625q-0.59375 -0.59375 -0.921875 -1.40625q-0.328125 -0.8125 -0.328125 -1.796875q0 -0.96875 0.296875 -1.78125q0.296875 -0.8125 0.84375 -1.40625q0.5625 -0.609375 1.359375 -0.9375q0.8125 -0.328125 1.796875 -0.328125q1.09375 0 1.90625 0.359375q0.8125 0.359375 1.34375 1.015625q0.546875 0.640625 0.796875 1.53125q0.265625 0.890625 0.265625 1.96875l-7.328125 0zm6.015625 -1.0625q-0.21875 -1.390625 -1.015625 -2.078125q-0.796875 -0.6875 -1.984375 -0.6875q-0.59375 0 -1.109375 0.203125q-0.5 0.203125 -0.890625 0.5625q-0.390625 0.359375 -0.65625 0.875q-0.265625 0.515625 -0.34375 1.125l6.0 0zm10.965668 4.875l-1.265625 0l0 -5.234375q0 -1.140625 -0.5 -1.765625q-0.484375 -0.640625 -1.578125 -0.640625q-0.6875 0 -1.25 0.328125q-0.5625 0.3125 -0.953125 0.84375q-0.390625 0.53125 -0.609375 1.21875q-0.203125 0.6875 -0.203125 1.4375l0 3.8125l-1.234375 0l0 -8.484375l1.234375 0l0 2.125q0.90625 -2.328125 3.21875 -2.328125q3.140625 0 3.140625 3.453125l0 5.234375zm10.715668 -2.703125q-0.140625 1.34375 -1.046875 2.125q-0.90625 0.78125 -2.265625 0.78125q-0.75 0 -1.375 -0.234375q-0.609375 -0.25 -1.046875 -0.6875q-0.4375 -0.4375 -0.6875 -1.046875q-0.234375 -0.625 -0.234375 -1.34375l0 -4.3125l-1.921875 0l0 -1.0625l1.921875 0l0 -3.40625l1.25 0l0 3.40625l3.609375 0l0 1.0625l-3.609375 0l0 4.3125q0 0.453125 0.140625 0.875q0.15625 0.40625 0.421875 0.71875q0.28125 0.296875 0.65625 0.484375q0.375 0.171875 0.875 0.171875q0.921875 0 1.546875 -0.578125q0.625 -0.578125 0.71875 -1.5l1.046875 0.234375z" fill-rule="nonzero"/><path fill="#d0e0e3" d="m47.087364 73.0001l0 0c0 -16.04412 13.006329 -29.05045 29.050446 -29.05045l167.72589 0c7.704651 0 15.093735 3.0606613 20.541763 8.508678c5.4480286 5.448017 8.508667 12.837112 8.508667 20.54177l0 116.19831c0 16.044128 -13.006317 29.050446 -29.05043 29.050446l-167.72589 0l0 0c-16.044117 0 -29.050446 -13.006317 -29.050446 -29.050446z" fill-rule="evenodd"/><path fill="#45818e" d="m101.84891 138.01926l-7.59375 0l0 -11.890625l1.234375 0l0 10.828125l6.359375 0l0 1.0625zm10.840668 -4.21875q0 1.0 -0.3125 1.8125q-0.3125 0.796875 -0.90625 1.375q-0.578125 0.578125 -1.40625 0.90625q-0.8125 0.328125 -1.828125 0.328125q-0.984375 0 -1.8125 -0.328125q-0.8125 -0.328125 -1.40625 -0.90625q-0.578125 -0.578125 -0.90625 -1.375q-0.3125 -0.8125 -0.3125 -1.8125q0 -0.96875 0.3125 -1.796875q0.328125 -0.828125 0.90625 -1.421875q0.59375 -0.59375 1.40625 -0.921875q0.828125 -0.328125 1.8125 -0.328125q1.015625 0 1.828125 0.328125q0.828125 0.328125 1.40625 0.921875q0.59375 0.59375 0.90625 1.421875q0.3125 0.828125 0.3125 1.796875zm-1.25 0q0 -0.734375 -0.21875 -1.34375q-0.203125 -0.609375 -0.625 -1.078125q-0.421875 -0.46875 -1.015625 -0.734375q-0.59375 -0.265625 -1.34375 -0.265625q-0.75 0 -1.34375 0.265625q-0.59375 0.265625 -1.0 0.734375q-0.40625 0.46875 -0.625 1.078125q-0.21875 0.609375 -0.21875 1.34375q0 0.734375 0.21875 1.34375q0.21875 0.609375 0.625 1.0625q0.40625 0.453125 1.0 0.703125q0.59375 0.25 1.34375 0.25q0.75 0 1.34375 -0.25q0.59375 -0.25 1.015625 -0.703125q0.421875 -0.453125 0.625 -1.0625q0.21875 -0.609375 0.21875 -1.34375zm10.903168 2.59375q-0.53125 0.84375 -1.46875 1.34375q-0.9375 0.484375 -2.21875 0.484375q-1.0 0 -1.828125 -0.328125q-0.828125 -0.328125 -1.421875 -0.90625q-0.578125 -0.59375 -0.90625 -1.40625q-0.328125 -0.8125 -0.328125 -1.796875q0 -0.96875 0.296875 -1.78125q0.296875 -0.828125 0.859375 -1.421875q0.5625 -0.59375 1.359375 -0.921875q0.8125 -0.328125 1.796875 -0.328125q0.390625 0 0.796875 0.09375q0.40625 0.078125 0.765625 0.265625q0.375 0.1875 0.65625 0.453125q0.296875 0.265625 0.453125 0.609375l0 -1.21875l1.109375 0l0 3.390625l-1.109375 0q0 -0.5625 -0.21875 -1.03125q-0.203125 -0.46875 -0.5625 -0.796875q-0.34375 -0.34375 -0.84375 -0.53125q-0.484375 -0.1875 -1.046875 -0.1875q-0.765625 0 -1.34375 0.265625q-0.5625 0.265625 -0.953125 0.734375q-0.375 0.453125 -0.578125 1.0625q-0.1875 0.609375 -0.1875 1.34375q0 0.734375 0.21875 1.34375q0.21875 0.609375 0.640625 1.0625q0.4375 0.4375 1.03125 0.703125q0.59375 0.265625 1.34375 0.265625q0.9375 0 1.671875 -0.375q0.75 -0.375 1.140625 -0.984375l0.875 0.59375zm1.9969177 -0.671875q0 -0.796875 0.390625 -1.34375q0.40625 -0.546875 1.0625 -0.859375q0.65625 -0.3125 1.484375 -0.453125q0.84375 -0.140625 1.71875 -0.140625q0.34375 0 0.609375 0.015625q0.265625 0 0.5 0.03125q0.25 0.015625 0.5 0.046875q0.25 0.015625 0.53125 0.046875l0 -0.609375q0 -0.609375 -0.265625 -1.015625q-0.265625 -0.40625 -0.65625 -0.625q-0.390625 -0.234375 -0.828125 -0.328125q-0.421875 -0.109375 -0.71875 -0.109375q-0.953125 0 -1.75 0.265625q-0.796875 0.25 -1.5 0.671875l-0.5625 -0.9375q0.765625 -0.453125 1.71875 -0.75q0.953125 -0.296875 2.09375 -0.296875q0.6875 0 1.359375 0.1875q0.671875 0.171875 1.203125 0.546875q0.53125 0.359375 0.84375 0.96875q0.328125 0.59375 0.328125 1.421875l0 5.5625l-1.265625 0l0 -1.421875q-0.328125 0.40625 -0.75 0.71875q-0.40625 0.3125 -0.859375 0.515625q-0.453125 0.1875 -0.90625 0.28125q-0.453125 0.109375 -0.875 0.109375q-1.671875 0 -2.546875 -0.640625q-0.859375 -0.640625 -0.859375 -1.859375zm3.40625 1.4375q0.796875 0 1.40625 -0.234375q0.625 -0.234375 1.0625 -0.578125q0.4375 -0.34375 0.671875 -0.734375q0.25 -0.390625 0.25 -0.703125l0 -0.8125q-0.609375 -0.09375 -1.171875 -0.09375q-0.546875 -0.015625 -0.96875 -0.015625q-0.671875 0 -1.296875 0.09375q-0.625 0.09375 -1.09375 0.296875q-0.453125 0.203125 -0.734375 0.53125q-0.28125 0.328125 -0.28125 0.8125q0 0.53125 0.515625 0.984375q0.53125 0.453125 1.640625 0.453125zm13.575043 0.859375l-5.09375 0l0 -1.0625l1.921875 0l0 -9.765625l-1.921875 0l0 -1.0625l3.1875 0l0 10.828125l1.90625 0l0 1.0625zm22.07196 -7.875l-1.0625 0l0 -2.953125l-2.546875 0l0 9.765625l1.90625 0l0 1.0625l-5.09375 0l0 -1.0625l1.921875 0l0 -9.765625l-2.546875 0l0 2.953125l-1.0625 0l0 -4.015625l8.484375 0l0 4.015625zm2.9500427 4.0625q0.140625 1.359375 0.984375 2.15625q0.84375 0.796875 2.203125 0.796875q0.953125 0 1.703125 -0.390625q0.75 -0.390625 1.125 -0.96875l0.875 0.59375q-0.640625 0.890625 -1.53125 1.359375q-0.875 0.46875 -2.171875 0.46875q-0.984375 0 -1.8125 -0.328125q-0.8125 -0.328125 -1.40625 -0.90625q-0.59375 -0.59375 -0.921875 -1.40625q-0.328125 -0.8125 -0.328125 -1.796875q0 -0.96875 0.296875 -1.78125q0.296875 -0.8125 0.84375 -1.40625q0.5625 -0.609375 1.359375 -0.9375q0.8125 -0.328125 1.796875 -0.328125q1.09375 0 1.90625 0.359375q0.8125 0.359375 1.34375 1.015625q0.546875 0.640625 0.796875 1.53125q0.265625 0.890625 0.265625 1.96875l-7.328125 0zm6.015625 -1.0625q-0.21875 -1.390625 -1.015625 -2.078125q-0.796875 -0.6875 -1.984375 -0.6875q-0.59375 0 -1.109375 0.203125q-0.5 0.203125 -0.890625 0.5625q-0.390625 0.359375 -0.65625 0.875q-0.265625 0.515625 -0.34375 1.125l6.0 0zm11.184418 2.53125q0 0.734375 -0.375 1.234375q-0.375 0.484375 -0.96875 0.78125q-0.578125 0.296875 -1.3125 0.40625q-0.71875 0.125 -1.40625 0.125q-1.15625 0 -2.3125 -0.328125q-1.140625 -0.34375 -1.984375 -0.890625l0.5625 -1.078125q0.9375 0.59375 1.84375 0.921875q0.90625 0.3125 1.890625 0.3125q2.8125 0 2.8125 -1.453125q0 -0.359375 -0.234375 -0.578125q-0.234375 -0.21875 -0.625 -0.359375q-0.390625 -0.140625 -0.90625 -0.21875q-0.5 -0.09375 -1.046875 -0.171875q-0.71875 -0.09375 -1.421875 -0.234375q-0.6875 -0.140625 -1.28125 -0.40625q-0.578125 -0.28125 -0.921875 -0.734375q-0.34375 -0.453125 -0.34375 -1.203125q0 -0.625 0.3125 -1.09375q0.328125 -0.46875 0.859375 -0.78125q0.546875 -0.3125 1.28125 -0.453125q0.734375 -0.140625 1.515625 -0.140625q1.109375 0 2.0 0.265625q0.890625 0.25 1.59375 0.734375l-0.5 0.96875q-0.734375 -0.5 -1.484375 -0.703125q-0.734375 -0.21875 -1.609375 -0.21875q-0.390625 0 -0.875 0.078125q-0.484375 0.0625 -0.890625 0.234375q-0.40625 0.171875 -0.6875 0.4375q-0.28125 0.265625 -0.28125 0.671875q0 0.359375 0.234375 0.578125q0.234375 0.21875 0.625 0.359375q0.390625 0.140625 0.890625 0.21875q0.515625 0.078125 1.078125 0.15625q0.6875 0.09375 1.390625 0.234375q0.703125 0.140625 1.28125 0.40625q0.578125 0.25 0.9375 0.71875q0.359375 0.453125 0.359375 1.203125zm10.496918 -0.359375q-0.140625 1.34375 -1.046875 2.125q-0.90625 0.78125 -2.265625 0.78125q-0.75 0 -1.375 -0.234375q-0.609375 -0.25 -1.046875 -0.6875q-0.4375 -0.4375 -0.6875 -1.046875q-0.234375 -0.625 -0.234375 -1.34375l0 -4.3125l-1.921875 0l0 -1.0625l1.921875 0l0 -3.40625l1.25 0l0 3.40625l3.609375 0l0 1.0625l-3.609375 0l0 4.3125q0 0.453125 0.140625 0.875q0.15625 0.40625 0.421875 0.71875q0.28125 0.296875 0.65625 0.484375q0.375 0.171875 0.875 0.171875q0.921875 0 1.546875 -0.578125q0.625 -0.578125 0.71875 -1.5l1.046875 0.234375zm6.7000427 -7.484375l-1.703125 0l0 -1.703125l1.703125 0l0 1.703125zm1.6875 10.1875l-5.09375 0l0 -1.0625l1.921875 0l0 -6.359375l-1.921875 0l0 -1.0625l3.1875 0l0 7.421875l1.90625 0l0 1.0625zm11.450043 0l-1.265625 0l0 -5.234375q0 -1.140625 -0.5 -1.765625q-0.484375 -0.640625 -1.578125 -0.640625q-0.6875 0 -1.25 0.328125q-0.5625 0.3125 -0.953125 0.84375q-0.390625 0.53125 -0.609375 1.21875q-0.203125 0.6875 -0.203125 1.4375l0 3.8125l-1.234375 0l0 -8.484375l1.234375 0l0 2.125q0.90625 -2.328125 3.21875 -2.328125q3.140625 0 3.140625 3.453125l0 5.234375zm10.184418 -0.09375q0 0.875 -0.3125 1.5625q-0.296875 0.6875 -0.84375 1.15625q-0.53125 0.46875 -1.265625 0.71875q-0.734375 0.25 -1.640625 0.25q-1.265625 0 -2.15625 -0.46875q-0.875 -0.46875 -1.53125 -1.359375l0.875 -0.6875q0.390625 0.59375 1.125 1.0q0.75 0.40625 1.6875 0.40625q1.296875 0 2.046875 -0.65625q0.75 -0.65625 0.75 -1.875l0 -0.921875q-1.109375 0.984375 -2.53125 0.984375q-1.984375 0 -3.125 -1.140625q-1.140625 -1.140625 -1.140625 -3.109375q0 -0.96875 0.296875 -1.78125q0.296875 -0.8125 0.84375 -1.40625q0.546875 -0.609375 1.34375 -0.9375q0.796875 -0.328125 1.78125 -0.328125q0.703125 0 1.34375 0.25q0.65625 0.234375 1.1875 0.71875l0 -0.765625l1.265625 0l0 8.390625zm-1.265625 -6.421875q-0.53125 -0.59375 -1.171875 -0.859375q-0.640625 -0.265625 -1.359375 -0.265625q-0.75 0 -1.3125 0.265625q-0.5625 0.265625 -0.9375 0.734375q-0.375 0.453125 -0.578125 1.078125q-0.1875 0.609375 -0.1875 1.328125q0 1.453125 0.75 2.328125q0.75 0.859375 2.265625 0.859375q0.71875 0 1.359375 -0.265625q0.640625 -0.265625 1.171875 -0.875l0 -4.328125z" fill-rule="nonzero"/><path fill="#000000" fill-opacity="0.0" d="m136.087 319.09634l0 -59.08664" fill-rule="evenodd"/><path stroke="#d0e0e3" stroke-width="1.0" stroke-linejoin="round" stroke-linecap="butt" d="m136.087 319.09634l0 -53.08664" fill-rule="evenodd"/><path fill="#d0e0e3" stroke="#d0e0e3" stroke-width="1.0" stroke-linecap="butt" d="m137.73874 266.0097l-1.6517334 -4.538086l-1.6517334 4.538086z" fill-rule="evenodd"/><path fill="#000000" fill-opacity="0.0" d="m184.46379 260.03918l0 59.08661" fill-rule="evenodd"/><path stroke="#d0e0e3" stroke-width="1.0" stroke-linejoin="round" stroke-linecap="butt" d="m184.46379 260.03918l0 53.08661" fill-rule="evenodd"/><path fill="#d0e0e3" stroke="#d0e0e3" stroke-width="1.0" stroke-linecap="butt" d="m182.81206 313.1258l1.6517334 4.5381165l1.6517334 -4.5381165z" fill-rule="evenodd"/><path fill="#000000" fill-opacity="0.0" d="m305.0007 104.220955l53.165344 0" fill-rule="evenodd"/><path stroke="#6aa84f" stroke-width="1.0" stroke-linejoin="round" stroke-linecap="butt" d="m305.0007 104.220955l47.165344 0" fill-rule="evenodd"/><path fill="#6aa84f" stroke="#6aa84f" stroke-width="1.0" stroke-linecap="butt" d="m352.16605 105.87269l4.5381165 -1.6517334l-4.5381165 -1.6517334z" fill-rule="evenodd"/><path fill="#000000" fill-opacity="0.0" d="m358.15048 157.97461l-53.165375 0" fill-rule="evenodd"/><path stroke="#6aa84f" stroke-width="1.0" stroke-linejoin="round" stroke-linecap="butt" d="m358.15048 157.97461l-47.165375 0" fill-rule="evenodd"/><path fill="#6aa84f" stroke="#6aa84f" stroke-width="1.0" stroke-linecap="butt" d="m310.9851 156.32288l-4.538086 1.6517334l4.538086 1.6517334z" fill-rule="evenodd"/><path fill="#000000" fill-opacity="0.0" d="m305.0007 329.0104l53.165344 0" fill-rule="evenodd"/><path stroke="#6aa84f" stroke-width="1.0" stroke-linejoin="round" stroke-linecap="butt" d="m305.0007 329.0104l47.165344 0" fill-rule="evenodd"/><path fill="#6aa84f" stroke="#6aa84f" stroke-width="1.0" stroke-linecap="butt" d="m352.16605 330.66214l4.5381165 -1.6517334l-4.5381165 -1.6517334z" fill-rule="evenodd"/><path fill="#000000" fill-opacity="0.0" d="m358.15048 382.76407l-53.165375 0" fill-rule="evenodd"/><path stroke="#6aa84f" stroke-width="1.0" stroke-linejoin="round" stroke-linecap="butt" d="m358.15048 382.76407l-47.165375 0" fill-rule="evenodd"/><path fill="#6aa84f" stroke="#6aa84f" stroke-width="1.0" stroke-linecap="butt" d="m310.9851 381.11234l-4.538086 1.6517334l4.538086 1.6517334z" fill-rule="evenodd"/><path fill="#000000" fill-opacity="0.0" d="m866.03674 463.07077l0 59.08664" fill-rule="evenodd"/><path stroke="#6aa84f" stroke-width="1.0" stroke-linejoin="round" stroke-linecap="butt" d="m866.03674 463.07077l0 53.08664" fill-rule="evenodd"/><path fill="#6aa84f" stroke="#6aa84f" stroke-width="1.0" stroke-linecap="butt" d="m864.385 516.1574l1.6517334 4.538086l1.6517334 -4.538086z" fill-rule="evenodd"/><path fill="#000000" fill-opacity="0.0" d="m817.66 522.1279l0 -59.08664" fill-rule="evenodd"/><path stroke="#6aa84f" stroke-width="1.0" stroke-linejoin="round" stroke-linecap="butt" d="m817.6599 522.1279l0 -53.08664" fill-rule="evenodd"/><path fill="#6aa84f" stroke="#6aa84f" stroke-width="1.0" stroke-linecap="butt" d="m819.31165 469.0413l-1.6517334 -4.538086l-1.6517334 4.538086z" fill-rule="evenodd"/><path fill="#000000" fill-opacity="0.0" d="m484.89984 463.07077l0 59.08664" fill-rule="evenodd"/><path stroke="#6aa84f" stroke-width="1.0" stroke-linejoin="round" stroke-linecap="butt" d="m484.89984 463.07077l0 53.08664" fill-rule="evenodd"/><path fill="#6aa84f" stroke="#6aa84f" stroke-width="1.0" stroke-linecap="butt" d="m483.2481 516.1574l1.6517334 4.538086l1.6517334 -4.538086z" fill-rule="evenodd"/><path fill="#000000" fill-opacity="0.0" d="m436.52307 522.1279l0 -59.08664" fill-rule="evenodd"/><path stroke="#6aa84f" stroke-width="1.0" stroke-linejoin="round" stroke-linecap="butt" d="m436.5231 522.1279l0 -53.08664" fill-rule="evenodd"/><path fill="#6aa84f" stroke="#6aa84f" stroke-width="1.0" stroke-linecap="butt" d="m438.17484 469.0413l-1.6517334 -4.538086l-1.6517334 4.538086z" fill-rule="evenodd"/><path fill="#000000" fill-opacity="0.0" d="m184.46379 463.074l0 59.08664" fill-rule="evenodd"/><path stroke="#6aa84f" stroke-width="1.0" stroke-linejoin="round" stroke-linecap="butt" d="m184.46379 463.07404l0 53.08661" fill-rule="evenodd"/><path fill="#6aa84f" stroke="#6aa84f" stroke-width="1.0" stroke-linecap="butt" d="m182.81206 516.16064l1.6517334 4.538086l1.6517334 -4.538086z" fill-rule="evenodd"/><path fill="#000000" fill-opacity="0.0" d="m136.087 522.13116l0 -59.08664" fill-rule="evenodd"/><path stroke="#6aa84f" stroke-width="1.0" stroke-linejoin="round" stroke-linecap="butt" d="m136.087 522.13116l0 -53.08664" fill-rule="evenodd"/><path fill="#6aa84f" stroke="#6aa84f" stroke-width="1.0" stroke-linecap="butt" d="m137.73874 469.04453l-1.6517334 -4.538086l-1.6517334 4.538086z" fill-rule="evenodd"/></g></svg>