<svg version="1.1" viewBox="0.0 0.0 237.99475065616798 231.2729658792651" fill="none" stroke="none" stroke-linecap="square" stroke-miterlimit="10" xmlns:xlink="http://www.w3.org/1999/xlink" xmlns="http://www.w3.org/2000/svg"><clipPath id="p.0"><path d="m0 0l237.99475 0l0 231.27296l-237.99475 0l0 -231.27296z" clip-rule="nonzero"/></clipPath><g clip-path="url(#p.0)"><path fill="#000000" fill-opacity="0.0" d="m0 0l237.99475 0l0 231.27296l-237.99475 0z" fill-rule="evenodd"/><path fill="#000000" fill-opacity="0.0" d="m-5.905512 12.026247l230.64568 0l0 198.20473l-230.64568 0z" fill-rule="evenodd"/><path fill="#ff9660" d="m196.0091 74.581726l-4.6875 0q-0.53125 -12.109375 -5.15625 -19.984375q-4.609375 -7.875 -13.796875 -11.0625q-9.171875 -3.203125 -29.09375 -3.203125l-35.8125 0l31.640625 62.375l-81.109375 72.515625l71.734375 0q33.328125 0 41.921875 -23.046875l4.953125 0l-18.625 54.953125l-144.90625 0l0 -4.6875l94.390625 -84.375l-41.65625 -82.15625l0 -5.343748l141.26562 0l-11.0625 44.015625z" fill-rule="nonzero"/><path fill="#000000" fill-opacity="0.0" d="m75.13123 34.845146l163.59055 0l0 42.015747l-163.59055 0z" fill-rule="evenodd"/></g></svg>